<svg width="300" height="77" viewBox="0 0 300 77" fill="none" xmlns="http://www.w3.org/2000/svg">
<rect width="76.2712" height="76.2712" rx="10.1695" fill="#E9D5FF"/>
<path d="M36.0156 16.9491V21.1864" stroke="#7E22CE" stroke-width="3.17797" stroke-linecap="round" stroke-linejoin="round"/>
<path d="M23.3047 16.9491V21.1864" stroke="#7E22CE" stroke-width="3.17797" stroke-linecap="round" stroke-linejoin="round"/>
<path d="M23.3052 19.0677H21.1865C20.0627 19.0677 18.9849 19.5141 18.1903 20.3088C17.3956 21.1034 16.9492 22.1812 16.9492 23.305V31.7796C16.9492 35.1509 18.2885 38.3843 20.6724 40.7682C23.0564 43.1521 26.2897 44.4914 29.6611 44.4914C33.0325 44.4914 36.2658 43.1521 38.6497 40.7682C41.0337 38.3843 42.3729 35.1509 42.3729 31.7796V23.305C42.3729 22.1812 41.9265 21.1034 41.1319 20.3088C40.3372 19.5141 39.2595 19.0677 38.1357 19.0677H36.017" stroke="#7E22CE" stroke-width="3.17797" stroke-linecap="round" stroke-linejoin="round"/>
<path d="M29.6602 44.4914C29.6602 47.8628 30.9994 51.0961 33.3834 53.4801C35.7673 55.864 39.0006 57.2033 42.372 57.2033C45.7434 57.2033 48.9767 55.864 51.3607 53.4801C53.7446 51.0961 55.0839 47.8628 55.0839 44.4914V38.1355" stroke="#7E22CE" stroke-width="3.17797" stroke-linecap="round" stroke-linejoin="round"/>
<path d="M55.0849 38.1356C57.4251 38.1356 59.3222 36.2385 59.3222 33.8983C59.3222 31.5581 57.4251 29.661 55.0849 29.661C52.7448 29.661 50.8477 31.5581 50.8477 33.8983C50.8477 36.2385 52.7448 38.1356 55.0849 38.1356Z" stroke="#7E22CE" stroke-width="3.17797" stroke-linecap="round" stroke-linejoin="round"/>
<path d="M34.125 31.1083C32.6032 30.7227 31.8405 30.5334 31.3144 30.0013C30.7882 29.4657 30.601 28.698 30.2197 27.159L29.6583 24.8916L29.0968 27.159C28.7155 28.698 28.5283 29.4693 28.0022 30.0013C27.4725 30.5334 26.7133 30.7227 25.1915 31.1083L22.9492 31.676L25.1915 32.2437C26.7133 32.6294 27.4761 32.8187 28.0022 33.3507C28.5283 33.8863 28.7155 34.654 29.0968 36.193L29.6583 38.4604L30.2197 36.193C30.601 34.654 30.7882 33.8827 31.3144 33.3507C31.844 32.8187 32.6032 32.6294 34.125 32.2437L36.3673 31.676L34.125 31.1083Z" fill="#7E22CE"/>
<path d="M35.1023 25.2027C34.5949 25.0741 34.3407 25.011 34.1653 24.8337C33.9899 24.6551 33.9276 24.3992 33.8005 23.8862L33.6133 23.1304L33.4262 23.8862C33.299 24.3992 33.2367 24.6563 33.0613 24.8337C32.8848 25.011 32.6316 25.0741 32.1244 25.2027L31.377 25.3919L32.1244 25.5812C32.6316 25.7097 32.8859 25.7728 33.0613 25.9501C33.2367 26.1287 33.299 26.3846 33.4262 26.8976L33.6133 27.6534L33.8005 26.8976C33.9276 26.3846 33.9899 26.1275 34.1653 25.9501C34.3419 25.7728 34.5949 25.7097 35.1023 25.5812L35.8497 25.3919L35.1023 25.2027Z" fill="#7E22CE"/>
<path d="M115.042 44.2711H111.495L97.2269 22.6355V44.2711H93.6794V17.0609H97.2269L111.495 38.6576V17.0609H115.042V44.2711ZM140.035 22.9084V44.2711H136.488V41.1135C135.812 42.205 134.863 43.0626 133.642 43.6864C132.446 44.2841 131.121 44.583 129.666 44.583C128.002 44.583 126.508 44.2451 125.183 43.5694C123.857 42.8677 122.805 41.8282 122.025 40.4508C121.271 39.0734 120.894 37.3971 120.894 35.422V22.9084H124.403V34.9542C124.403 37.0593 124.936 38.6835 126.001 39.8271C127.067 40.9446 128.522 41.5033 130.367 41.5033C132.265 41.5033 133.759 40.9186 134.85 39.7491C135.942 38.5796 136.488 36.8773 136.488 34.6423V22.9084H140.035ZM149.572 26.3779C150.196 25.1564 151.08 24.2078 152.223 23.5321C153.393 22.8564 154.809 22.5186 156.472 22.5186V26.183H155.537C151.56 26.183 149.572 28.34 149.572 32.6542V44.2711H146.025V22.9084H149.572V26.3779ZM168.13 44.622C166.493 44.622 165.024 44.3491 163.725 43.8033C162.426 43.2316 161.399 42.4519 160.645 41.4643C159.892 40.4508 159.476 39.2943 159.398 37.9948H163.062C163.166 39.0604 163.66 39.931 164.544 40.6067C165.453 41.2824 166.636 41.6203 168.091 41.6203C169.442 41.6203 170.508 41.3214 171.288 40.7237C172.067 40.1259 172.457 39.3722 172.457 38.4626C172.457 37.5271 172.041 36.8383 171.21 36.3965C170.378 35.9287 169.092 35.4739 167.35 35.0321C165.765 34.6163 164.466 34.2005 163.452 33.7847C162.465 33.3429 161.607 32.7061 160.879 31.8745C160.178 31.0169 159.827 29.8994 159.827 28.522C159.827 27.4304 160.152 26.4299 160.801 25.5203C161.451 24.6107 162.374 23.896 163.569 23.3762C164.765 22.8304 166.129 22.5576 167.662 22.5576C170.027 22.5576 171.937 23.1553 173.393 24.3508C174.848 25.5463 175.628 27.1835 175.732 29.2626H172.184C172.106 28.1451 171.652 27.2485 170.82 26.5728C170.014 25.8971 168.923 25.5593 167.545 25.5593C166.272 25.5593 165.258 25.8321 164.505 26.3779C163.751 26.9237 163.374 27.6383 163.374 28.522C163.374 29.2237 163.595 29.8084 164.037 30.2762C164.505 30.718 165.076 31.0819 165.752 31.3677C166.454 31.6276 167.415 31.9265 168.637 32.2643C170.17 32.6802 171.418 33.096 172.379 33.5118C173.341 33.9016 174.159 34.4994 174.835 35.305C175.537 36.1107 175.901 37.1632 175.927 38.4626C175.927 39.6321 175.602 40.6847 174.952 41.6203C174.302 42.5559 173.38 43.2965 172.184 43.8423C171.015 44.3621 169.663 44.622 168.13 44.622ZM200.426 32.7711C200.426 33.4468 200.387 34.1615 200.309 34.9152H183.234C183.364 37.0203 184.079 38.6706 185.379 39.866C186.704 41.0355 188.302 41.6203 190.173 41.6203C191.707 41.6203 192.98 41.2694 193.994 40.5677C195.033 39.84 195.761 38.8785 196.177 37.683H199.997C199.425 39.7361 198.282 41.4124 196.567 42.7118C194.851 43.9852 192.72 44.622 190.173 44.622C188.146 44.622 186.327 44.1672 184.716 43.2576C183.131 42.348 181.883 41.0615 180.973 39.3982C180.064 37.709 179.609 35.7598 179.609 33.5508C179.609 31.3417 180.051 29.4056 180.934 27.7423C181.818 26.079 183.053 24.8056 184.638 23.922C186.249 23.0124 188.094 22.5576 190.173 22.5576C192.201 22.5576 193.994 22.9994 195.553 23.883C197.112 24.7666 198.308 25.9881 199.14 27.5474C199.997 29.0807 200.426 30.822 200.426 32.7711ZM196.762 32.0304C196.762 30.679 196.463 29.5225 195.865 28.5609C195.267 27.5734 194.449 26.8327 193.409 26.3389C192.395 25.8191 191.265 25.5593 190.018 25.5593C188.224 25.5593 186.691 26.131 185.418 27.2745C184.17 28.418 183.455 30.0033 183.273 32.0304H196.762ZM208.656 26.3779C209.28 25.1564 210.163 24.2078 211.307 23.5321C212.476 22.8564 213.893 22.5186 215.556 22.5186V26.183H214.62C210.644 26.183 208.656 28.34 208.656 32.6542V44.2711H205.109V22.9084H208.656V26.3779ZM218.326 33.5118C218.326 31.3287 218.767 29.4186 219.651 27.7813C220.535 26.118 221.743 24.8316 223.276 23.922C224.836 23.0124 226.564 22.5576 228.461 22.5576C230.332 22.5576 231.957 22.9604 233.334 23.766C234.711 24.5717 235.738 25.5852 236.414 26.8067V22.9084H240V44.2711H236.414V40.2948C235.712 41.5423 234.66 42.5819 233.256 43.4135C231.879 44.2191 230.267 44.622 228.422 44.622C226.525 44.622 224.81 44.1542 223.276 43.2186C221.743 42.283 220.535 40.9706 219.651 39.2813C218.767 37.592 218.326 35.6689 218.326 33.5118ZM236.414 33.5508C236.414 31.9395 236.089 30.5361 235.439 29.3406C234.789 28.1451 233.906 27.2355 232.788 26.6118C231.697 25.9621 230.488 25.6372 229.163 25.6372C227.837 25.6372 226.629 25.9491 225.537 26.5728C224.446 27.1965 223.575 28.1061 222.926 29.3016C222.276 30.4971 221.951 31.9005 221.951 33.5118C221.951 35.1491 222.276 36.5785 222.926 37.7999C223.575 38.9954 224.446 39.918 225.537 40.5677C226.629 41.1915 227.837 41.5033 229.163 41.5033C230.488 41.5033 231.697 41.1915 232.788 40.5677C233.906 39.918 234.789 38.9954 235.439 37.7999C236.089 36.5785 236.414 35.1621 236.414 33.5508ZM247.126 44.505C246.45 44.505 245.878 44.2711 245.41 43.8033C244.942 43.3355 244.709 42.7638 244.709 42.0881C244.709 41.4124 244.942 40.8406 245.41 40.3728C245.878 39.905 246.45 39.6711 247.126 39.6711C247.775 39.6711 248.321 39.905 248.763 40.3728C249.231 40.8406 249.465 41.4124 249.465 42.0881C249.465 42.7638 249.231 43.3355 248.763 43.8033C248.321 44.2711 247.775 44.505 247.126 44.505Z" fill="black"/>
<path d="M252.855 33.5118C252.855 31.3287 253.296 29.4186 254.18 27.7813C255.064 26.118 256.272 24.8316 257.805 23.922C259.365 23.0124 261.093 22.5576 262.99 22.5576C264.861 22.5576 266.486 22.9604 267.863 23.766C269.24 24.5717 270.267 25.5852 270.943 26.8067V22.9084H274.529V44.2711H270.943V40.2948C270.241 41.5423 269.188 42.5819 267.785 43.4135C266.408 44.2191 264.796 44.622 262.951 44.622C261.054 44.622 259.339 44.1542 257.805 43.2186C256.272 42.283 255.064 40.9706 254.18 39.2813C253.296 37.592 252.855 35.6689 252.855 33.5118ZM270.943 33.5508C270.943 31.9395 270.618 30.5361 269.968 29.3406C269.318 28.1451 268.435 27.2355 267.317 26.6118C266.226 25.9621 265.017 25.6372 263.692 25.6372C262.366 25.6372 261.158 25.9491 260.066 26.5728C258.975 27.1965 258.104 28.1061 257.455 29.3016C256.805 30.4971 256.48 31.9005 256.48 33.5118C256.48 35.1491 256.805 36.5785 257.455 37.7999C258.104 38.9954 258.975 39.918 260.066 40.5677C261.158 41.1915 262.366 41.5033 263.692 41.5033C265.017 41.5033 266.226 41.1915 267.317 40.5677C268.435 39.918 269.318 38.9954 269.968 37.7999C270.618 36.5785 270.943 35.1621 270.943 33.5508ZM282.356 19.4389C281.68 19.4389 281.109 19.205 280.641 18.7372C280.173 18.2694 279.939 17.6977 279.939 17.022C279.939 16.3463 280.173 15.7745 280.641 15.3067C281.109 14.8389 281.68 14.605 282.356 14.605C283.006 14.605 283.552 14.8389 283.993 15.3067C284.461 15.7745 284.695 16.3463 284.695 17.022C284.695 17.6977 284.461 18.2694 283.993 18.7372C283.552 19.205 283.006 19.4389 282.356 19.4389ZM284.071 22.9084V44.2711H280.524V22.9084H284.071Z" fill="#7E22CE"/>
<path d="M97.8981 61.4914C98.3275 61.5592 98.7173 61.7344 99.0676 62.0168C99.4291 62.2993 99.7116 62.6496 99.915 63.0677C100.13 63.4858 100.237 63.9321 100.237 64.4067C100.237 65.0056 100.085 65.5479 99.7794 66.0338C99.4743 66.5084 99.028 66.8869 98.4404 67.1694C97.8642 67.4406 97.1806 67.5762 96.3896 67.5762H91.9828V55.7626H96.2201C97.0224 55.7626 97.706 55.8982 98.271 56.1694C98.8359 56.4293 99.2597 56.7852 99.5421 57.2372C99.8246 57.6892 99.9659 58.1976 99.9659 58.7626C99.9659 59.4632 99.7738 60.0451 99.3896 60.5084C99.0167 60.9604 98.5195 61.288 97.8981 61.4914ZM93.5252 60.8643H96.1184C96.8416 60.8643 97.4009 60.6948 97.7964 60.3558C98.1919 60.0168 98.3896 59.5479 98.3896 58.9491C98.3896 58.3502 98.1919 57.8813 97.7964 57.5423C97.4009 57.2033 96.8303 57.0338 96.0845 57.0338H93.5252V60.8643ZM96.254 66.305C97.0224 66.305 97.6212 66.1242 98.0506 65.7626C98.48 65.401 98.6947 64.8982 98.6947 64.2541C98.6947 63.5988 98.4687 63.0846 98.0167 62.7118C97.5647 62.3276 96.9602 62.1355 96.2032 62.1355H93.5252V66.305H96.254ZM110.377 58.288L104.784 71.9491H103.191L105.021 67.4745L101.276 58.288H102.988L105.903 65.8135L108.784 58.288H110.377ZM115.87 62.8982C115.87 61.9491 116.062 61.1185 116.447 60.4067C116.831 59.6835 117.356 59.1242 118.023 58.7287C118.701 58.3332 119.452 58.1355 120.277 58.1355C121.091 58.1355 121.797 58.3106 122.396 58.6609C122.995 59.0112 123.441 59.4519 123.735 59.983V58.288H125.294V67.5762H123.735V65.8474C123.43 66.3897 122.972 66.8417 122.362 67.2033C121.763 67.5536 121.062 67.7287 120.26 67.7287C119.435 67.7287 118.689 67.5253 118.023 67.1185C117.356 66.7118 116.831 66.1411 116.447 65.4067C116.062 64.6722 115.87 63.8361 115.87 62.8982ZM123.735 62.9152C123.735 62.2146 123.593 61.6044 123.311 61.0846C123.028 60.5649 122.644 60.1694 122.158 59.8982C121.684 59.6157 121.158 59.4745 120.582 59.4745C120.006 59.4745 119.48 59.6101 119.006 59.8813C118.531 60.1524 118.153 60.5479 117.87 61.0677C117.588 61.5875 117.447 62.1976 117.447 62.8982C117.447 63.6101 117.588 64.2315 117.87 64.7626C118.153 65.2824 118.531 65.6835 119.006 65.966C119.48 66.2372 120.006 66.3728 120.582 66.3728C121.158 66.3728 121.684 66.2372 122.158 65.966C122.644 65.6835 123.028 65.2824 123.311 64.7626C123.593 64.2315 123.735 63.6157 123.735 62.9152ZM131.731 58.1355C132.533 58.1355 133.234 58.3106 133.833 58.6609C134.443 59.0112 134.895 59.4519 135.189 59.983V58.288H136.748V67.7796C136.748 68.627 136.567 69.3784 136.206 70.0338C135.844 70.7005 135.324 71.2202 134.646 71.5931C133.98 71.966 133.2 72.1524 132.307 72.1524C131.087 72.1524 130.07 71.8643 129.256 71.288C128.443 70.7118 127.963 69.9265 127.816 68.9321H129.341C129.511 69.4971 129.861 69.9491 130.392 70.288C130.923 70.6383 131.561 70.8135 132.307 70.8135C133.155 70.8135 133.844 70.5479 134.375 70.0168C134.917 69.4858 135.189 68.74 135.189 67.7796V65.8304C134.884 66.3728 134.432 66.8248 133.833 67.1863C133.234 67.5479 132.533 67.7287 131.731 67.7287C130.906 67.7287 130.155 67.5253 129.477 67.1185C128.81 66.7118 128.285 66.1411 127.9 65.4067C127.516 64.6722 127.324 63.8361 127.324 62.8982C127.324 61.9491 127.516 61.1185 127.9 60.4067C128.285 59.6835 128.81 59.1242 129.477 58.7287C130.155 58.3332 130.906 58.1355 131.731 58.1355ZM135.189 62.9152C135.189 62.2146 135.047 61.6044 134.765 61.0846C134.482 60.5649 134.098 60.1694 133.612 59.8982C133.138 59.6157 132.612 59.4745 132.036 59.4745C131.46 59.4745 130.934 59.6101 130.46 59.8813C129.985 60.1524 129.607 60.5479 129.324 61.0677C129.042 61.5875 128.9 62.1976 128.9 62.8982C128.9 63.6101 129.042 64.2315 129.324 64.7626C129.607 65.2824 129.985 65.6835 130.46 65.966C130.934 66.2372 131.46 66.3728 132.036 66.3728C132.612 66.3728 133.138 66.2372 133.612 65.966C134.098 65.6835 134.482 65.2824 134.765 64.7626C135.047 64.2315 135.189 63.6157 135.189 62.9152ZM140.897 55.0338V67.5762H139.354V55.0338H140.897ZM144.322 56.7796C144.028 56.7796 143.78 56.6779 143.576 56.4745C143.373 56.2711 143.271 56.0225 143.271 55.7287C143.271 55.4349 143.373 55.1863 143.576 54.983C143.78 54.7796 144.028 54.6779 144.322 54.6779C144.605 54.6779 144.842 54.7796 145.034 54.983C145.237 55.1863 145.339 55.4349 145.339 55.7287C145.339 56.0225 145.237 56.2711 145.034 56.4745C144.842 56.6779 144.605 56.7796 144.322 56.7796ZM145.068 58.288V67.5762H143.525V58.288H145.068ZM152.222 58.1185C153.352 58.1185 154.267 58.4632 154.968 59.1524C155.668 59.8304 156.019 60.8135 156.019 62.1016V67.5762H154.493V62.3219C154.493 61.3954 154.262 60.6892 153.798 60.2033C153.335 59.7061 152.702 59.4575 151.9 59.4575C151.086 59.4575 150.437 59.7118 149.951 60.2202C149.476 60.7287 149.239 61.4688 149.239 62.4406V67.5762H147.697V58.288H149.239V59.6101C149.544 59.1355 149.956 58.7683 150.476 58.5084C151.007 58.2485 151.589 58.1185 152.222 58.1185ZM160.419 59.5592V65.0338C160.419 65.4858 160.515 65.8078 160.708 65.9999C160.9 66.1807 161.233 66.2711 161.708 66.2711H162.843V67.5762H161.453C160.595 67.5762 159.95 67.3784 159.521 66.983C159.092 66.5875 158.877 65.9378 158.877 65.0338V59.5592H157.674V58.288H158.877V55.9491H160.419V58.288H162.843V59.5592H160.419Z" fill="#475569"/>
<rect x="202.982" y="53.3389" width="85.1223" height="19.879" rx="2.87898" fill="#16A34A"/>
<path d="M217.296 62.101C217.296 62.7689 217.066 63.3256 216.605 63.7708C216.152 64.2084 215.457 64.4272 214.521 64.4272H212.978V67.7784H211.93V59.7518H214.521C215.427 59.7518 216.114 59.9706 216.582 60.4082C217.058 60.8458 217.296 61.4101 217.296 62.101ZM214.521 63.5635C215.104 63.5635 215.534 63.4369 215.811 63.1835C216.087 62.9302 216.225 62.5693 216.225 62.101C216.225 61.1107 215.657 60.6155 214.521 60.6155H212.978V63.5635H214.521ZM219.647 62.4926C219.831 62.1317 220.092 61.8515 220.43 61.6519C220.775 61.4523 221.194 61.3525 221.685 61.3525V62.435H221.408C220.234 62.435 219.647 63.0722 219.647 64.3466V67.7784H218.599V61.4676H219.647V62.4926ZM223.436 60.4427C223.236 60.4427 223.067 60.3736 222.929 60.2354C222.791 60.0973 222.722 59.9284 222.722 59.7287C222.722 59.5291 222.791 59.3602 222.929 59.222C223.067 59.0839 223.236 59.0148 223.436 59.0148C223.628 59.0148 223.789 59.0839 223.919 59.222C224.058 59.3602 224.127 59.5291 224.127 59.7287C224.127 59.9284 224.058 60.0973 223.919 60.2354C223.789 60.3736 223.628 60.4427 223.436 60.4427ZM223.943 61.4676V67.7784H222.895V61.4676H223.943ZM228.078 66.811L230.036 61.4676H231.153L228.677 67.7784H227.456L224.98 61.4676H226.109L228.078 66.811ZM231.792 64.6C231.792 63.9551 231.923 63.3908 232.184 62.9071C232.445 62.4158 232.802 62.0358 233.255 61.7671C233.715 61.4984 234.226 61.364 234.786 61.364C235.339 61.364 235.819 61.483 236.226 61.721C236.633 61.959 236.936 62.2584 237.136 62.6192V61.4676H238.195V67.7784H237.136V66.6038C236.928 66.9723 236.617 67.2794 236.203 67.525C235.796 67.763 235.32 67.882 234.775 67.882C234.214 67.882 233.708 67.7438 233.255 67.4675C232.802 67.1911 232.445 66.8034 232.184 66.3043C231.923 65.8053 231.792 65.2372 231.792 64.6ZM237.136 64.6115C237.136 64.1355 237.04 63.7209 236.848 63.3678C236.656 63.0146 236.395 62.7459 236.065 62.5617C235.742 62.3697 235.385 62.2738 234.994 62.2738C234.602 62.2738 234.245 62.3659 233.923 62.5501C233.6 62.7344 233.343 63.0031 233.151 63.3563C232.959 63.7094 232.863 64.124 232.863 64.6C232.863 65.0837 232.959 65.5059 233.151 65.8667C233.343 66.2199 233.6 66.4924 233.923 66.6844C234.245 66.8686 234.602 66.9607 234.994 66.9607C235.385 66.9607 235.742 66.8686 236.065 66.6844C236.395 66.4924 236.656 66.2199 236.848 65.8667C237.04 65.5059 237.136 65.0875 237.136 64.6115ZM241.244 62.3313V66.051C241.244 66.3581 241.31 66.5769 241.44 66.7074C241.571 66.8302 241.797 66.8917 242.12 66.8917H242.891V67.7784H241.947C241.363 67.7784 240.926 67.644 240.634 67.3753C240.342 67.1066 240.196 66.6652 240.196 66.051V62.3313H239.379V61.4676H240.196V59.8784H241.244V61.4676H242.891V62.3313H241.244ZM249.919 64.3812C249.919 64.5808 249.907 64.7919 249.884 65.0146H244.84C244.879 65.6364 245.09 66.1239 245.474 66.4771C245.865 66.8226 246.337 66.9953 246.89 66.9953C247.343 66.9953 247.719 66.8917 248.019 66.6844C248.326 66.4694 248.541 66.1853 248.664 65.8322H249.792C249.623 66.4387 249.285 66.9339 248.779 67.3177C248.272 67.6939 247.642 67.882 246.89 67.882C246.291 67.882 245.754 67.7477 245.278 67.479C244.81 67.2103 244.441 66.8302 244.172 66.3389C243.904 65.8399 243.769 65.2641 243.769 64.6115C243.769 63.9589 243.9 63.387 244.161 62.8956C244.422 62.4043 244.787 62.0281 245.255 61.7671C245.731 61.4984 246.276 61.364 246.89 61.364C247.489 61.364 248.019 61.4945 248.479 61.7555C248.94 62.0166 249.293 62.3774 249.539 62.838C249.792 63.291 249.919 63.8054 249.919 64.3812ZM248.836 64.1624C248.836 63.7632 248.748 63.4215 248.571 63.1375C248.395 62.8457 248.153 62.6269 247.846 62.4811C247.547 62.3275 247.213 62.2507 246.844 62.2507C246.314 62.2507 245.861 62.4196 245.485 62.7574C245.117 63.0952 244.906 63.5635 244.852 64.1624H248.836ZM258.391 63.6442C258.683 63.6902 258.948 63.8092 259.186 64.0012C259.432 64.1931 259.623 64.4311 259.762 64.7151C259.908 64.9992 259.98 65.3025 259.98 65.6249C259.98 66.0318 259.877 66.4003 259.67 66.7304C259.462 67.0529 259.159 67.3101 258.76 67.502C258.368 67.6863 257.904 67.7784 257.366 67.7784H254.372V59.7518H257.251C257.796 59.7518 258.261 59.8439 258.645 60.0282C259.028 60.2047 259.316 60.4466 259.508 60.7537C259.7 61.0608 259.796 61.4062 259.796 61.7901C259.796 62.2661 259.666 62.6615 259.405 62.9762C259.151 63.2833 258.814 63.506 258.391 63.6442ZM255.42 63.2181H257.182C257.673 63.2181 258.053 63.1029 258.322 62.8726C258.591 62.6423 258.725 62.3237 258.725 61.9168C258.725 61.5099 258.591 61.1913 258.322 60.9609C258.053 60.7306 257.666 60.6155 257.159 60.6155H255.42V63.2181ZM257.274 66.9147C257.796 66.9147 258.203 66.7918 258.495 66.5462C258.787 66.3005 258.933 65.9589 258.933 65.5213C258.933 65.076 258.779 64.7267 258.472 64.4733C258.165 64.2123 257.754 64.0818 257.24 64.0818H255.42V66.9147H257.274ZM267.193 64.3812C267.193 64.5808 267.181 64.7919 267.158 65.0146H262.114C262.153 65.6364 262.364 66.1239 262.748 66.4771C263.139 66.8226 263.611 66.9953 264.164 66.9953C264.617 66.9953 264.993 66.8917 265.293 66.6844C265.6 66.4694 265.815 66.1853 265.937 65.8322H267.066C266.897 66.4387 266.559 66.9339 266.053 67.3177C265.546 67.6939 264.916 67.882 264.164 67.882C263.565 67.882 263.028 67.7477 262.552 67.479C262.083 67.2103 261.715 66.8302 261.446 66.3389C261.178 65.8399 261.043 65.2641 261.043 64.6115C261.043 63.9589 261.174 63.387 261.435 62.8956C261.696 62.4043 262.06 62.0281 262.529 61.7671C263.005 61.4984 263.55 61.364 264.164 61.364C264.763 61.364 265.293 61.4945 265.753 61.7555C266.214 62.0166 266.567 62.3774 266.813 62.838C267.066 63.291 267.193 63.8054 267.193 64.3812ZM266.11 64.1624C266.11 63.7632 266.022 63.4215 265.845 63.1375C265.669 62.8457 265.427 62.6269 265.12 62.4811C264.82 62.3275 264.486 62.2507 264.118 62.2507C263.588 62.2507 263.135 62.4196 262.759 62.7574C262.391 63.0952 262.179 63.5635 262.126 64.1624H266.11ZM269.854 62.3313V66.051C269.854 66.3581 269.919 66.5769 270.05 66.7074C270.181 66.8302 270.407 66.8917 270.729 66.8917H271.501V67.7784H270.557C269.973 67.7784 269.536 67.644 269.244 67.3753C268.952 67.1066 268.806 66.6652 268.806 66.051V62.3313H267.989V61.4676H268.806V59.8784H269.854V61.4676H271.501V62.3313H269.854ZM272.379 64.6C272.379 63.9551 272.51 63.3908 272.771 62.9071C273.032 62.4158 273.389 62.0358 273.842 61.7671C274.302 61.4984 274.813 61.364 275.373 61.364C275.926 61.364 276.406 61.483 276.813 61.721C277.22 61.959 277.523 62.2584 277.723 62.6192V61.4676H278.782V67.7784H277.723V66.6038C277.515 66.9723 277.204 67.2794 276.79 67.525C276.383 67.763 275.907 67.882 275.362 67.882C274.801 67.882 274.295 67.7438 273.842 67.4675C273.389 67.1911 273.032 66.8034 272.771 66.3043C272.51 65.8053 272.379 65.2372 272.379 64.6ZM277.723 64.6115C277.723 64.1355 277.627 63.7209 277.435 63.3678C277.243 63.0146 276.982 62.7459 276.652 62.5617C276.329 62.3697 275.972 62.2738 275.581 62.2738C275.189 62.2738 274.832 62.3659 274.51 62.5501C274.187 62.7344 273.93 63.0031 273.738 63.3563C273.546 63.7094 273.45 64.124 273.45 64.6C273.45 65.0837 273.546 65.5059 273.738 65.8667C273.93 66.2199 274.187 66.4924 274.51 66.6844C274.832 66.8686 275.189 66.9607 275.581 66.9607C275.972 66.9607 276.329 66.8686 276.652 66.6844C276.982 66.4924 277.243 66.2199 277.435 65.8667C277.627 65.5059 277.723 65.0875 277.723 64.6115Z" fill="white"/>
</svg>
