<svg width="300" height="77" viewBox="0 0 300 77" fill="none" xmlns="http://www.w3.org/2000/svg">
<rect width="76.2712" height="76.2712" rx="10.1695" fill="#E9D5FF"/>
<path d="M36.0156 16.9491V21.1864" stroke="#7E22CE" stroke-width="3.17797" stroke-linecap="round" stroke-linejoin="round"/>
<path d="M23.3047 16.9491V21.1864" stroke="#7E22CE" stroke-width="3.17797" stroke-linecap="round" stroke-linejoin="round"/>
<path d="M23.3052 19.0677H21.1865C20.0627 19.0677 18.9849 19.5142 18.1903 20.3088C17.3956 21.1035 16.9492 22.1812 16.9492 23.305V31.7796C16.9492 35.151 18.2885 38.3843 20.6724 40.7683C23.0564 43.1522 26.2897 44.4915 29.6611 44.4915C33.0325 44.4915 36.2658 43.1522 38.6497 40.7683C41.0337 38.3843 42.3729 35.151 42.3729 31.7796V23.305C42.3729 22.1812 41.9265 21.1035 41.1319 20.3088C40.3372 19.5142 39.2595 19.0677 38.1357 19.0677H36.017" stroke="#7E22CE" stroke-width="3.17797" stroke-linecap="round" stroke-linejoin="round"/>
<path d="M29.6602 44.4914C29.6602 47.8628 30.9994 51.0961 33.3834 53.4801C35.7673 55.864 39.0006 57.2033 42.372 57.2033C45.7434 57.2033 48.9767 55.864 51.3607 53.4801C53.7446 51.0961 55.0839 47.8628 55.0839 44.4914V38.1355" stroke="#7E22CE" stroke-width="3.17797" stroke-linecap="round" stroke-linejoin="round"/>
<path d="M55.0849 38.1356C57.4251 38.1356 59.3222 36.2385 59.3222 33.8983C59.3222 31.5581 57.4251 29.661 55.0849 29.661C52.7448 29.661 50.8477 31.5581 50.8477 33.8983C50.8477 36.2385 52.7448 38.1356 55.0849 38.1356Z" stroke="#7E22CE" stroke-width="3.17797" stroke-linecap="round" stroke-linejoin="round"/>
<path d="M34.125 31.1083C32.6032 30.7227 31.8405 30.5334 31.3144 30.0013C30.7882 29.4657 30.601 28.698 30.2197 27.159L29.6583 24.8916L29.0968 27.159C28.7155 28.698 28.5283 29.4693 28.0022 30.0013C27.4725 30.5334 26.7133 30.7227 25.1915 31.1083L22.9492 31.676L25.1915 32.2437C26.7133 32.6294 27.4761 32.8187 28.0022 33.3507C28.5283 33.8863 28.7155 34.654 29.0968 36.193L29.6583 38.4604L30.2197 36.193C30.601 34.654 30.7882 33.8827 31.3144 33.3507C31.844 32.8187 32.6032 32.6294 34.125 32.2437L36.3673 31.676L34.125 31.1083Z" fill="#7E22CE"/>
<path d="M35.1003 25.2027C34.593 25.0742 34.3387 25.0111 34.1634 24.8337C33.988 24.6552 33.9256 24.3993 33.7985 23.8863L33.6113 23.1305L33.4242 23.8863C33.2971 24.3993 33.2347 24.6564 33.0594 24.8337C32.8828 25.0111 32.6297 25.0742 32.1224 25.2027L31.375 25.392L32.1224 25.5812C32.6297 25.7098 32.8839 25.7728 33.0594 25.9502C33.2347 26.1287 33.2971 26.3846 33.4242 26.8976L33.6113 27.6534L33.7985 26.8976C33.9256 26.3846 33.988 26.1275 34.1634 25.9502C34.3399 25.7728 34.593 25.7098 35.1003 25.5812L35.8477 25.392L35.1003 25.2027Z" fill="#7E22CE"/>
<path d="M115.044 44.2712H111.497L97.2288 22.6356V44.2712H93.6814V17.0611H97.2288L111.497 38.6577V17.0611H115.044V44.2712ZM140.037 22.9085V44.2712H136.49V41.1136C135.814 42.2051 134.865 43.0628 133.644 43.6865C132.448 44.2842 131.123 44.5831 129.668 44.5831C128.004 44.5831 126.51 44.2453 125.185 43.5695C123.859 42.8679 122.807 41.8283 122.027 40.4509C121.273 39.0735 120.896 37.3972 120.896 35.4221V22.9085H124.405V34.9543C124.405 37.0594 124.938 38.6837 126.003 39.8272C127.069 40.9447 128.524 41.5034 130.369 41.5034C132.266 41.5034 133.761 40.9187 134.852 39.7492C135.944 38.5797 136.49 36.8775 136.49 34.6424V22.9085H140.037ZM149.574 26.378C150.198 25.1565 151.082 24.208 152.225 23.5323C153.395 22.8565 154.811 22.5187 156.474 22.5187V26.1831H155.539C151.562 26.1831 149.574 28.3402 149.574 32.6543V44.2712H146.027V22.9085H149.574V26.378ZM168.132 44.6221C166.495 44.6221 165.026 44.3492 163.727 43.8034C162.427 43.2317 161.401 42.452 160.647 41.4645C159.894 40.4509 159.478 39.2944 159.4 37.995H163.064C163.168 39.0605 163.662 39.9311 164.546 40.6068C165.455 41.2825 166.638 41.6204 168.093 41.6204C169.444 41.6204 170.51 41.3215 171.29 40.7238C172.069 40.126 172.459 39.3724 172.459 38.4628C172.459 37.5272 172.043 36.8385 171.212 36.3967C170.38 35.9289 169.094 35.4741 167.352 35.0323C165.767 34.6164 164.468 34.2006 163.454 33.7848C162.466 33.343 161.609 32.7063 160.881 31.8746C160.179 31.017 159.829 29.8995 159.829 28.5221C159.829 27.4306 160.153 26.43 160.803 25.5204C161.453 24.6108 162.376 23.8961 163.571 23.3763C164.766 22.8306 166.131 22.5577 167.664 22.5577C170.029 22.5577 171.939 23.1554 173.395 24.3509C174.85 25.5464 175.63 27.1837 175.734 29.2628H172.186C172.108 28.1453 171.653 27.2486 170.822 26.5729C170.016 25.8972 168.925 25.5594 167.547 25.5594C166.274 25.5594 165.26 25.8323 164.507 26.378C163.753 26.9238 163.376 27.6385 163.376 28.5221C163.376 29.2238 163.597 29.8085 164.039 30.2763C164.507 30.7181 165.078 31.082 165.754 31.3678C166.456 31.6277 167.417 31.9266 168.639 32.2645C170.172 32.6803 171.42 33.0961 172.381 33.5119C173.343 33.9017 174.161 34.4995 174.837 35.3051C175.539 36.1108 175.903 37.1633 175.929 38.4628C175.929 39.6323 175.604 40.6848 174.954 41.6204C174.304 42.556 173.382 43.2967 172.186 43.8424C171.017 44.3622 169.665 44.6221 168.132 44.6221ZM179.611 33.5119C179.611 31.3289 180.053 29.4187 180.936 27.7814C181.82 26.1181 183.029 24.8317 184.562 23.9221C186.121 23.0125 187.849 22.5577 189.747 22.5577C191.618 22.5577 193.242 22.9605 194.619 23.7662C195.997 24.5718 197.023 25.5854 197.699 26.8068V22.9085H201.286V44.2712H197.699V40.295C196.997 41.5424 195.945 42.582 194.542 43.4136C193.164 44.2193 191.553 44.6221 189.708 44.6221C187.81 44.6221 186.095 44.1543 184.562 43.2187C183.029 42.2831 181.82 40.9707 180.936 39.2814C180.053 37.5921 179.611 35.669 179.611 33.5119ZM197.699 33.5509C197.699 31.9396 197.374 30.5362 196.725 29.3407C196.075 28.1453 195.191 27.2356 194.074 26.6119C192.982 25.9622 191.774 25.6373 190.448 25.6373C189.123 25.6373 187.914 25.9492 186.823 26.5729C185.731 27.1967 184.861 28.1063 184.211 29.3017C183.561 30.4972 183.236 31.9006 183.236 33.5119C183.236 35.1492 183.561 36.5786 184.211 37.8001C184.861 38.9955 185.731 39.9181 186.823 40.5679C187.914 41.1916 189.123 41.5034 190.448 41.5034C191.774 41.5034 192.982 41.1916 194.074 40.5679C195.191 39.9181 196.075 38.9955 196.725 37.8001C197.374 36.5786 197.699 35.1622 197.699 33.5509ZM217.689 22.5187C220.288 22.5187 222.393 23.3114 224.004 24.8967C225.615 26.456 226.421 28.717 226.421 31.6797V44.2712H222.913V32.1865C222.913 30.0554 222.38 28.4311 221.314 27.3136C220.249 26.1701 218.793 25.5984 216.948 25.5984C215.077 25.5984 213.583 26.1831 212.465 27.3526C211.374 28.5221 210.828 30.2243 210.828 32.4594V44.2712H207.28V22.9085H210.828V25.9492C211.53 24.8577 212.478 24.013 213.674 23.4153C214.895 22.8176 216.234 22.5187 217.689 22.5187ZM230.89 33.5119C230.89 31.3289 231.332 29.4187 232.216 27.7814C233.099 26.1181 234.308 24.8317 235.841 23.9221C237.401 23.0125 239.129 22.5577 241.026 22.5577C242.897 22.5577 244.522 22.9605 245.899 23.7662C247.276 24.5718 248.303 25.5854 248.979 26.8068V22.9085H252.565V44.2712H248.979V40.295C248.277 41.5424 247.224 42.582 245.821 43.4136C244.444 44.2193 242.832 44.6221 240.987 44.6221C239.09 44.6221 237.375 44.1543 235.841 43.2187C234.308 42.2831 233.099 40.9707 232.216 39.2814C231.332 37.5921 230.89 35.669 230.89 33.5119ZM248.979 33.5509C248.979 31.9396 248.654 30.5362 248.004 29.3407C247.354 28.1453 246.471 27.2356 245.353 26.6119C244.262 25.9622 243.053 25.6373 241.728 25.6373C240.402 25.6373 239.194 25.9492 238.102 26.5729C237.011 27.1967 236.14 28.1063 235.49 29.3017C234.841 30.4972 234.516 31.9006 234.516 33.5119C234.516 35.1492 234.841 36.5786 235.49 37.8001C236.14 38.9955 237.011 39.9181 238.102 40.5679C239.194 41.1916 240.402 41.5034 241.728 41.5034C243.053 41.5034 244.262 41.1916 245.353 40.5679C246.471 39.9181 247.354 38.9955 248.004 37.8001C248.654 36.5786 248.979 35.1622 248.979 33.5509ZM259.69 44.5051C259.015 44.5051 258.443 44.2712 257.975 43.8034C257.507 43.3356 257.273 42.7639 257.273 42.0882C257.273 41.4125 257.507 40.8407 257.975 40.3729C258.443 39.9051 259.015 39.6712 259.69 39.6712C260.34 39.6712 260.886 39.9051 261.328 40.3729C261.795 40.8407 262.029 41.4125 262.029 42.0882C262.029 42.7639 261.795 43.3356 261.328 43.8034C260.886 44.2712 260.34 44.5051 259.69 44.5051Z" fill="black"/>
<path d="M265.419 33.5119C265.419 31.3289 265.861 29.4187 266.745 27.7814C267.628 26.1181 268.837 24.8317 270.37 23.9221C271.93 23.0125 273.658 22.5577 275.555 22.5577C277.426 22.5577 279.05 22.9605 280.428 23.7662C281.805 24.5718 282.832 25.5854 283.508 26.8068V22.9085H287.094V44.2712H283.508V40.295C282.806 41.5424 281.753 42.582 280.35 43.4136C278.972 44.2193 277.361 44.6221 275.516 44.6221C273.619 44.6221 271.904 44.1543 270.37 43.2187C268.837 42.2831 267.628 40.9707 266.745 39.2814C265.861 37.5921 265.419 35.669 265.419 33.5119ZM283.508 33.5509C283.508 31.9396 283.183 30.5362 282.533 29.3407C281.883 28.1453 281 27.2356 279.882 26.6119C278.791 25.9622 277.582 25.6373 276.257 25.6373C274.931 25.6373 273.723 25.9492 272.631 26.5729C271.54 27.1967 270.669 28.1063 270.019 29.3017C269.37 30.4972 269.045 31.9006 269.045 33.5119C269.045 35.1492 269.37 36.5786 270.019 37.8001C270.669 38.9955 271.54 39.9181 272.631 40.5679C273.723 41.1916 274.931 41.5034 276.257 41.5034C277.582 41.5034 278.791 41.1916 279.882 40.5679C281 39.9181 281.883 38.9955 282.533 37.8001C283.183 36.5786 283.508 35.1622 283.508 33.5509ZM294.921 19.439C294.245 19.439 293.674 19.2051 293.206 18.7373C292.738 18.2695 292.504 17.6978 292.504 17.0221C292.504 16.3464 292.738 15.7746 293.206 15.3068C293.674 14.839 294.245 14.6051 294.921 14.6051C295.571 14.6051 296.117 14.839 296.558 15.3068C297.026 15.7746 297.26 16.3464 297.26 17.0221C297.26 17.6978 297.026 18.2695 296.558 18.7373C296.117 19.2051 295.571 19.439 294.921 19.439ZM296.636 22.9085V44.2712H293.089V22.9085H296.636Z" fill="#7E22CE"/>
<path d="M97.9 61.4915C98.3294 61.5593 98.7192 61.7345 99.0695 62.017C99.4311 62.2995 99.7136 62.6497 99.917 63.0678C100.132 63.4859 100.239 63.9322 100.239 64.4068C100.239 65.0057 100.086 65.548 99.7814 66.0339C99.4763 66.5085 99.03 66.887 98.4424 67.1695C97.8661 67.4407 97.1825 67.5763 96.3916 67.5763H91.9848V55.7627H96.2221C97.0243 55.7627 97.7079 55.8983 98.2729 56.1695C98.8379 56.4294 99.2616 56.7853 99.5441 57.2373C99.8266 57.6893 99.9678 58.1978 99.9678 58.7627C99.9678 59.4633 99.7757 60.0452 99.3916 60.5085C99.0187 60.9605 98.5215 61.2882 97.9 61.4915ZM93.5271 60.8644H96.1204C96.8435 60.8644 97.4029 60.6949 97.7983 60.356C98.1938 60.017 98.3916 59.548 98.3916 58.9492C98.3916 58.3503 98.1938 57.8814 97.7983 57.5424C97.4029 57.2034 96.8322 57.0339 96.0865 57.0339H93.5271V60.8644ZM96.256 66.3051C97.0243 66.3051 97.6232 66.1243 98.0526 65.7627C98.4819 65.4012 98.6966 64.8983 98.6966 64.2543C98.6966 63.5989 98.4706 63.0848 98.0187 62.7119C97.5667 62.3277 96.9622 62.1356 96.2051 62.1356H93.5271V66.3051H96.256ZM110.379 58.2882L104.786 71.9492H103.193L105.023 67.4746L101.278 58.2882H102.99L105.905 65.8136L108.786 58.2882H110.379ZM115.872 62.8983C115.872 61.9492 116.064 61.1187 116.448 60.4068C116.833 59.6836 117.358 59.1243 118.025 58.7288C118.703 58.3334 119.454 58.1356 120.279 58.1356C121.093 58.1356 121.799 58.3108 122.398 58.661C122.997 59.0113 123.443 59.452 123.737 59.9831V58.2882H125.296V67.5763H123.737V65.8475C123.432 66.3899 122.974 66.8418 122.364 67.2034C121.765 67.5537 121.064 67.7288 120.262 67.7288C119.437 67.7288 118.691 67.5254 118.025 67.1187C117.358 66.7119 116.833 66.1413 116.448 65.4068C116.064 64.6723 115.872 63.8362 115.872 62.8983ZM123.737 62.9153C123.737 62.2147 123.595 61.6045 123.313 61.0848C123.03 60.565 122.646 60.1695 122.16 59.8983C121.686 59.6158 121.16 59.4746 120.584 59.4746C120.008 59.4746 119.482 59.6102 119.008 59.8814C118.533 60.1526 118.155 60.548 117.872 61.0678C117.59 61.5876 117.448 62.1978 117.448 62.8983C117.448 63.6102 117.59 64.2317 117.872 64.7627C118.155 65.2825 118.533 65.6836 119.008 65.9661C119.482 66.2373 120.008 66.3729 120.584 66.3729C121.16 66.3729 121.686 66.2373 122.16 65.9661C122.646 65.6836 123.03 65.2825 123.313 64.7627C123.595 64.2317 123.737 63.6158 123.737 62.9153ZM131.733 58.1356C132.535 58.1356 133.236 58.3108 133.835 58.661C134.445 59.0113 134.897 59.452 135.191 59.9831V58.2882H136.75V67.7797C136.75 68.6271 136.569 69.3786 136.207 70.0339C135.846 70.7006 135.326 71.2204 134.648 71.5932C133.982 71.9661 133.202 72.1526 132.309 72.1526C131.089 72.1526 130.072 71.8644 129.258 71.2882C128.445 70.7119 127.965 69.9266 127.818 68.9322H129.343C129.513 69.4972 129.863 69.9492 130.394 70.2882C130.925 70.6384 131.563 70.8136 132.309 70.8136C133.157 70.8136 133.846 70.548 134.377 70.017C134.919 69.4859 135.191 68.7401 135.191 67.7797V65.8305C134.885 66.3729 134.433 66.8249 133.835 67.1865C133.236 67.548 132.535 67.7288 131.733 67.7288C130.908 67.7288 130.157 67.5254 129.479 67.1187C128.812 66.7119 128.287 66.1413 127.902 65.4068C127.518 64.6723 127.326 63.8362 127.326 62.8983C127.326 61.9492 127.518 61.1187 127.902 60.4068C128.287 59.6836 128.812 59.1243 129.479 58.7288C130.157 58.3334 130.908 58.1356 131.733 58.1356ZM135.191 62.9153C135.191 62.2147 135.049 61.6045 134.767 61.0848C134.484 60.565 134.1 60.1695 133.614 59.8983C133.14 59.6158 132.614 59.4746 132.038 59.4746C131.462 59.4746 130.936 59.6102 130.462 59.8814C129.987 60.1526 129.609 60.548 129.326 61.0678C129.044 61.5876 128.902 62.1978 128.902 62.8983C128.902 63.6102 129.044 64.2317 129.326 64.7627C129.609 65.2825 129.987 65.6836 130.462 65.9661C130.936 66.2373 131.462 66.3729 132.038 66.3729C132.614 66.3729 133.14 66.2373 133.614 65.9661C134.1 65.6836 134.484 65.2825 134.767 64.7627C135.049 64.2317 135.191 63.6158 135.191 62.9153ZM140.899 55.0339V67.5763H139.356V55.0339H140.899ZM144.324 56.7797C144.03 56.7797 143.782 56.678 143.578 56.4746C143.375 56.2712 143.273 56.0226 143.273 55.7288C143.273 55.4351 143.375 55.1865 143.578 54.9831C143.782 54.7797 144.03 54.678 144.324 54.678C144.607 54.678 144.844 54.7797 145.036 54.9831C145.239 55.1865 145.341 55.4351 145.341 55.7288C145.341 56.0226 145.239 56.2712 145.036 56.4746C144.844 56.678 144.607 56.7797 144.324 56.7797ZM145.07 58.2882V67.5763H143.527V58.2882H145.07ZM152.224 58.1187C153.354 58.1187 154.269 58.4633 154.97 59.1526C155.67 59.8305 156.021 60.8136 156.021 62.1017V67.5763H154.495V62.3221C154.495 61.3955 154.263 60.6893 153.8 60.2034C153.337 59.7062 152.704 59.4576 151.902 59.4576C151.088 59.4576 150.439 59.7119 149.953 60.2204C149.478 60.7288 149.241 61.4689 149.241 62.4407V67.5763H147.698V58.2882H149.241V59.6102C149.546 59.1356 149.958 58.7684 150.478 58.5085C151.009 58.2486 151.591 58.1187 152.224 58.1187ZM160.421 59.5593V65.0339C160.421 65.4859 160.517 65.8079 160.709 66C160.902 66.1808 161.235 66.2712 161.709 66.2712H162.845V67.5763H161.455C160.596 67.5763 159.952 67.3786 159.523 66.9831C159.094 66.5876 158.879 65.9379 158.879 65.0339V59.5593H157.676V58.2882H158.879V55.9492H160.421V58.2882H162.845V59.5593H160.421Z" fill="#475569"/>
<rect x="213.984" y="53.339" width="85.1223" height="19.879" rx="2.87898" fill="#16A34A"/>
<path d="M228.3 62.1011C228.3 62.769 228.07 63.3256 227.609 63.7709C227.156 64.2085 226.461 64.4273 225.525 64.4273H223.982V67.7784H222.934V59.7518H225.525C226.431 59.7518 227.118 59.9706 227.586 60.4082C228.062 60.8458 228.3 61.4101 228.3 62.1011ZM225.525 63.5636C226.108 63.5636 226.538 63.4369 226.814 63.1836C227.091 62.9302 227.229 62.5694 227.229 62.1011C227.229 61.1107 226.661 60.6155 225.525 60.6155H223.982V63.5636H225.525ZM230.65 62.4926C230.835 62.1318 231.096 61.8516 231.434 61.652C231.779 61.4524 232.197 61.3526 232.689 61.3526V62.435H232.412C231.238 62.435 230.65 63.0723 230.65 64.3467V67.7784H229.602V61.4677H230.65V62.4926ZM234.44 60.4428C234.24 60.4428 234.071 60.3737 233.933 60.2355C233.795 60.0973 233.726 59.9284 233.726 59.7288C233.726 59.5292 233.795 59.3603 233.933 59.2221C234.071 59.0839 234.24 59.0148 234.44 59.0148C234.632 59.0148 234.793 59.0839 234.923 59.2221C235.062 59.3603 235.131 59.5292 235.131 59.7288C235.131 59.9284 235.062 60.0973 234.923 60.2355C234.793 60.3737 234.632 60.4428 234.44 60.4428ZM234.946 61.4677V67.7784H233.898V61.4677H234.946ZM239.082 66.8111L241.039 61.4677H242.156L239.681 67.7784H238.46L235.984 61.4677H237.113L239.082 66.8111ZM242.796 64.6C242.796 63.9552 242.927 63.3909 243.188 62.9072C243.449 62.4159 243.806 62.0358 244.259 61.7671C244.719 61.4984 245.23 61.3641 245.79 61.3641C246.343 61.3641 246.823 61.4831 247.23 61.7211C247.637 61.9591 247.94 62.2585 248.14 62.6193V61.4677H249.199V67.7784H248.14V66.6038C247.932 66.9723 247.621 67.2794 247.207 67.5251C246.8 67.7631 246.324 67.8821 245.779 67.8821C245.218 67.8821 244.712 67.7439 244.259 67.4675C243.806 67.1911 243.449 66.8034 243.188 66.3044C242.927 65.8054 242.796 65.2373 242.796 64.6ZM248.14 64.6116C248.14 64.1356 248.044 63.721 247.852 63.3678C247.66 63.0147 247.399 62.746 247.069 62.5617C246.746 62.3698 246.389 62.2738 245.998 62.2738C245.606 62.2738 245.249 62.366 244.927 62.5502C244.604 62.7345 244.347 63.0032 244.155 63.3563C243.963 63.7095 243.867 64.1241 243.867 64.6C243.867 65.0837 243.963 65.506 244.155 65.8668C244.347 66.22 244.604 66.4925 244.927 66.6844C245.249 66.8687 245.606 66.9608 245.998 66.9608C246.389 66.9608 246.746 66.8687 247.069 66.6844C247.399 66.4925 247.66 66.22 247.852 65.8668C248.044 65.506 248.14 65.0876 248.14 64.6116ZM252.248 62.3314V66.0511C252.248 66.3581 252.313 66.5769 252.444 66.7075C252.575 66.8303 252.801 66.8917 253.123 66.8917H253.895V67.7784H252.951C252.367 67.7784 251.93 67.6441 251.638 67.3754C251.346 67.1067 251.2 66.6652 251.2 66.0511V62.3314H250.383V61.4677H251.2V59.8785H252.248V61.4677H253.895V62.3314H252.248ZM260.923 64.3812C260.923 64.5809 260.911 64.792 260.888 65.0146H255.844C255.883 65.6365 256.094 66.124 256.478 66.4771C256.869 66.8226 257.341 66.9954 257.894 66.9954C258.347 66.9954 258.723 66.8917 259.023 66.6844C259.33 66.4695 259.545 66.1854 259.667 65.8322H260.796C260.627 66.4388 260.289 66.9339 259.783 67.3178C259.276 67.694 258.646 67.8821 257.894 67.8821C257.295 67.8821 256.758 67.7477 256.282 67.479C255.813 67.2103 255.445 66.8303 255.176 66.339C254.908 65.8399 254.773 65.2641 254.773 64.6116C254.773 63.959 254.904 63.387 255.165 62.8957C255.426 62.4043 255.79 62.0282 256.259 61.7671C256.735 61.4984 257.28 61.3641 257.894 61.3641C258.493 61.3641 259.023 61.4946 259.483 61.7556C259.944 62.0166 260.297 62.3775 260.543 62.8381C260.796 63.2911 260.923 63.8054 260.923 64.3812ZM259.84 64.1624C259.84 63.7632 259.752 63.4216 259.575 63.1375C259.399 62.8458 259.157 62.627 258.85 62.4811C258.55 62.3276 258.216 62.2508 257.848 62.2508C257.318 62.2508 256.865 62.4197 256.489 62.7575C256.121 63.0953 255.909 63.5636 255.856 64.1624H259.84ZM269.395 63.6442C269.687 63.6903 269.952 63.8093 270.19 64.0012C270.435 64.1931 270.627 64.4311 270.766 64.7152C270.911 64.9993 270.984 65.3025 270.984 65.625C270.984 66.0319 270.881 66.4004 270.673 66.7305C270.466 67.0529 270.163 67.3101 269.764 67.5021C269.372 67.6863 268.908 67.7784 268.37 67.7784H265.376V59.7518H268.255C268.8 59.7518 269.265 59.844 269.649 60.0282C270.032 60.2048 270.32 60.4466 270.512 60.7537C270.704 61.0608 270.8 61.4063 270.8 61.7902C270.8 62.2661 270.67 62.6615 270.409 62.9763C270.155 63.2834 269.817 63.506 269.395 63.6442ZM266.424 63.2181H268.186C268.677 63.2181 269.057 63.103 269.326 62.8727C269.595 62.6423 269.729 62.3237 269.729 61.9168C269.729 61.5099 269.595 61.1913 269.326 60.961C269.057 60.7307 268.67 60.6155 268.163 60.6155H266.424V63.2181ZM268.278 66.9147C268.8 66.9147 269.207 66.7919 269.499 66.5462C269.791 66.3006 269.936 65.9589 269.936 65.5213C269.936 65.076 269.783 64.7267 269.476 64.4734C269.169 64.2123 268.758 64.0818 268.244 64.0818H266.424V66.9147H268.278ZM278.197 64.3812C278.197 64.5809 278.185 64.792 278.162 65.0146H273.118C273.156 65.6365 273.368 66.124 273.751 66.4771C274.143 66.8226 274.615 66.9954 275.168 66.9954C275.621 66.9954 275.997 66.8917 276.296 66.6844C276.604 66.4695 276.819 66.1854 276.941 65.8322H278.07C277.901 66.4388 277.563 66.9339 277.057 67.3178C276.55 67.694 275.92 67.8821 275.168 67.8821C274.569 67.8821 274.032 67.7477 273.556 67.479C273.087 67.2103 272.719 66.8303 272.45 66.339C272.181 65.8399 272.047 65.2641 272.047 64.6116C272.047 63.959 272.178 63.387 272.439 62.8957C272.7 62.4043 273.064 62.0282 273.533 61.7671C274.009 61.4984 274.554 61.3641 275.168 61.3641C275.767 61.3641 276.296 61.4946 276.757 61.7556C277.218 62.0166 277.571 62.3775 277.817 62.8381C278.07 63.2911 278.197 63.8054 278.197 64.3812ZM277.114 64.1624C277.114 63.7632 277.026 63.4216 276.849 63.1375C276.673 62.8458 276.431 62.627 276.124 62.4811C275.824 62.3276 275.49 62.2508 275.122 62.2508C274.592 62.2508 274.139 62.4197 273.763 62.7575C273.394 63.0953 273.183 63.5636 273.13 64.1624H277.114ZM280.858 62.3314V66.0511C280.858 66.3581 280.923 66.5769 281.054 66.7075C281.184 66.8303 281.411 66.8917 281.733 66.8917H282.505V67.7784H281.561C280.977 67.7784 280.54 67.6441 280.248 67.3754C279.956 67.1067 279.81 66.6652 279.81 66.0511V62.3314H278.993V61.4677H279.81V59.8785H280.858V61.4677H282.505V62.3314H280.858ZM283.383 64.6C283.383 63.9552 283.514 63.3909 283.775 62.9072C284.036 62.4159 284.393 62.0358 284.846 61.7671C285.306 61.4984 285.817 61.3641 286.377 61.3641C286.93 61.3641 287.41 61.4831 287.817 61.7211C288.224 61.9591 288.527 62.2585 288.726 62.6193V61.4677H289.786V67.7784H288.726V66.6038C288.519 66.9723 288.208 67.2794 287.794 67.5251C287.387 67.7631 286.911 67.8821 286.366 67.8821C285.805 67.8821 285.299 67.7439 284.846 67.4675C284.393 67.1911 284.036 66.8034 283.775 66.3044C283.514 65.8054 283.383 65.2373 283.383 64.6ZM288.726 64.6116C288.726 64.1356 288.631 63.721 288.439 63.3678C288.247 63.0147 287.986 62.746 287.655 62.5617C287.333 62.3698 286.976 62.2738 286.585 62.2738C286.193 62.2738 285.836 62.366 285.514 62.5502C285.191 62.7345 284.934 63.0032 284.742 63.3563C284.55 63.7095 284.454 64.1241 284.454 64.6C284.454 65.0837 284.55 65.506 284.742 65.8668C284.934 66.22 285.191 66.4925 285.514 66.6844C285.836 66.8687 286.193 66.9608 286.585 66.9608C286.976 66.9608 287.333 66.8687 287.655 66.6844C287.986 66.4925 288.247 66.22 288.439 65.8668C288.631 65.506 288.726 65.0876 288.726 64.6116Z" fill="white"/>
</svg>
