<svg width="300" height="77" viewBox="0 0 300 77" fill="none" xmlns="http://www.w3.org/2000/svg">
<rect width="76.2712" height="76.2712" rx="10.1695" fill="#E9D5FF"/>
<path d="M36.0156 16.9491V21.1864" stroke="#7E22CE" stroke-width="3.17797" stroke-linecap="round" stroke-linejoin="round"/>
<path d="M23.3047 16.9491V21.1864" stroke="#7E22CE" stroke-width="3.17797" stroke-linecap="round" stroke-linejoin="round"/>
<path d="M23.3052 19.0677H21.1865C20.0627 19.0677 18.9849 19.5142 18.1903 20.3088C17.3956 21.1035 16.9492 22.1812 16.9492 23.305V31.7796C16.9492 35.151 18.2885 38.3843 20.6724 40.7683C23.0564 43.1522 26.2897 44.4915 29.6611 44.4915C33.0325 44.4915 36.2658 43.1522 38.6497 40.7683C41.0337 38.3843 42.3729 35.151 42.3729 31.7796V23.305C42.3729 22.1812 41.9265 21.1035 41.1319 20.3088C40.3372 19.5142 39.2595 19.0677 38.1357 19.0677H36.017" stroke="#7E22CE" stroke-width="3.17797" stroke-linecap="round" stroke-linejoin="round"/>
<path d="M29.6602 44.4914C29.6602 47.8628 30.9994 51.0961 33.3834 53.4801C35.7673 55.864 39.0006 57.2033 42.372 57.2033C45.7434 57.2033 48.9767 55.864 51.3607 53.4801C53.7446 51.0961 55.0839 47.8628 55.0839 44.4914V38.1355" stroke="#7E22CE" stroke-width="3.17797" stroke-linecap="round" stroke-linejoin="round"/>
<path d="M55.0849 38.1356C57.4251 38.1356 59.3222 36.2385 59.3222 33.8983C59.3222 31.5581 57.4251 29.661 55.0849 29.661C52.7448 29.661 50.8477 31.5581 50.8477 33.8983C50.8477 36.2385 52.7448 38.1356 55.0849 38.1356Z" stroke="#7E22CE" stroke-width="3.17797" stroke-linecap="round" stroke-linejoin="round"/>
<path d="M34.125 31.1083C32.6032 30.7227 31.8405 30.5334 31.3144 30.0013C30.7882 29.4657 30.601 28.698 30.2197 27.159L29.6583 24.8916L29.0968 27.159C28.7155 28.698 28.5283 29.4693 28.0022 30.0013C27.4725 30.5334 26.7133 30.7227 25.1915 31.1083L22.9492 31.676L25.1915 32.2437C26.7133 32.6294 27.4761 32.8187 28.0022 33.3507C28.5283 33.8863 28.7155 34.654 29.0968 36.193L29.6583 38.4604L30.2197 36.193C30.601 34.654 30.7882 33.8827 31.3144 33.3507C31.844 32.8187 32.6032 32.6294 34.125 32.2437L36.3673 31.676L34.125 31.1083Z" fill="#7E22CE"/>
<path d="M35.1003 25.2027C34.593 25.0742 34.3387 25.0111 34.1634 24.8337C33.988 24.6552 33.9256 24.3993 33.7985 23.8863L33.6113 23.1305L33.4242 23.8863C33.2971 24.3993 33.2347 24.6564 33.0594 24.8337C32.8828 25.0111 32.6297 25.0742 32.1224 25.2027L31.375 25.392L32.1224 25.5812C32.6297 25.7098 32.8839 25.7728 33.0594 25.9502C33.2347 26.1287 33.2971 26.3846 33.4242 26.8976L33.6113 27.6534L33.7985 26.8976C33.9256 26.3846 33.988 26.1275 34.1634 25.9502C34.3399 25.7728 34.593 25.7098 35.1003 25.5812L35.8477 25.392L35.1003 25.2027Z" fill="#7E22CE"/>
<path d="M114.364 33H110.817L96.5492 11.3644V33H93.0017V5.78983H96.5492L110.817 27.3864V5.78983H114.364V33ZM139.357 11.6373V33H135.81V29.8424C135.134 30.9339 134.186 31.7915 132.964 32.4153C131.769 33.013 130.443 33.3119 128.988 33.3119C127.325 33.3119 125.83 32.974 124.505 32.2983C123.179 31.5966 122.127 30.5571 121.347 29.1797C120.594 27.8023 120.217 26.126 120.217 24.1508V11.6373H123.725V23.6831C123.725 25.7881 124.258 27.4124 125.324 28.5559C126.389 29.6734 127.844 30.2322 129.69 30.2322C131.587 30.2322 133.081 29.6475 134.173 28.478C135.264 27.3085 135.81 25.6062 135.81 23.3712V11.6373H139.357ZM148.895 15.1068C149.518 13.8853 150.402 12.9367 151.545 12.261C152.715 11.5853 154.131 11.2475 155.795 11.2475V14.9119H154.859C150.883 14.9119 148.895 17.0689 148.895 21.3831V33H145.347V11.6373H148.895V15.1068ZM167.452 33.3508C165.815 33.3508 164.347 33.078 163.047 32.5322C161.748 31.9605 160.721 31.1808 159.968 30.1932C159.214 29.1797 158.798 28.0232 158.72 26.7237H162.385C162.488 27.7893 162.982 28.6599 163.866 29.3356C164.775 30.0113 165.958 30.3492 167.413 30.3492C168.765 30.3492 169.83 30.0503 170.61 29.4525C171.39 28.8548 171.779 28.1011 171.779 27.1915C171.779 26.2559 171.364 25.5672 170.532 25.1254C169.7 24.6576 168.414 24.2028 166.673 23.761C165.087 23.3452 163.788 22.9294 162.774 22.5136C161.787 22.0718 160.929 21.435 160.201 20.6034C159.5 19.7458 159.149 18.6282 159.149 17.2508C159.149 16.1593 159.474 15.1588 160.124 14.2492C160.773 13.3395 161.696 12.6249 162.891 12.1051C164.087 11.5593 165.451 11.2864 166.985 11.2864C169.349 11.2864 171.26 11.8842 172.715 13.0797C174.17 14.2751 174.95 15.9124 175.054 17.9915H171.507C171.429 16.874 170.974 15.9774 170.142 15.3017C169.336 14.626 168.245 14.2881 166.868 14.2881C165.594 14.2881 164.581 14.561 163.827 15.1068C163.073 15.6525 162.696 16.3672 162.696 17.2508C162.696 17.9525 162.917 18.5373 163.359 19.0051C163.827 19.4469 164.399 19.8107 165.074 20.0966C165.776 20.3565 166.738 20.6554 167.959 20.9932C169.492 21.409 170.74 21.8249 171.701 22.2407C172.663 22.6305 173.482 23.2282 174.157 24.0339C174.859 24.8395 175.223 25.8921 175.249 27.1915C175.249 28.361 174.924 29.4136 174.274 30.3492C173.625 31.2847 172.702 32.0254 171.507 32.5712C170.337 33.091 168.986 33.3508 167.452 33.3508ZM178.931 22.2407C178.931 20.0576 179.373 18.1475 180.257 16.5102C181.14 14.8469 182.349 13.5605 183.882 12.6508C185.441 11.7412 187.17 11.2864 189.067 11.2864C190.938 11.2864 192.562 11.6893 193.94 12.4949C195.317 13.3006 196.344 14.3141 197.019 15.5356V11.6373H200.606V33H197.019V29.0237C196.318 30.2712 195.265 31.3107 193.862 32.1424C192.484 32.948 190.873 33.3508 189.028 33.3508C187.131 33.3508 185.415 32.8831 183.882 31.9475C182.349 31.0119 181.14 29.6994 180.257 28.0102C179.373 26.3209 178.931 24.3977 178.931 22.2407ZM197.019 22.2797C197.019 20.6684 196.695 19.265 196.045 18.0695C195.395 16.874 194.512 15.9644 193.394 15.3407C192.302 14.691 191.094 14.3661 189.769 14.3661C188.443 14.3661 187.235 14.678 186.143 15.3017C185.052 15.9254 184.181 16.835 183.531 18.0305C182.882 19.226 182.557 20.6294 182.557 22.2407C182.557 23.878 182.882 25.3073 183.531 26.5288C184.181 27.7243 185.052 28.6469 186.143 29.2966C187.235 29.9203 188.443 30.2322 189.769 30.2322C191.094 30.2322 192.302 29.9203 193.394 29.2966C194.512 28.6469 195.395 27.7243 196.045 26.5288C196.695 25.3073 197.019 23.891 197.019 22.2797ZM217.009 11.2475C219.608 11.2475 221.713 12.0401 223.324 13.6254C224.936 15.1847 225.741 17.4458 225.741 20.4085V33H222.233V20.9153C222.233 18.7842 221.7 17.1599 220.635 16.0424C219.569 14.8989 218.114 14.3271 216.269 14.3271C214.397 14.3271 212.903 14.9119 211.785 16.0814C210.694 17.2508 210.148 18.9531 210.148 21.1881V33H206.601V11.6373H210.148V14.678C210.85 13.5864 211.798 12.7418 212.994 12.1441C214.215 11.5463 215.554 11.2475 217.009 11.2475ZM230.211 22.2407C230.211 20.0576 230.653 18.1475 231.536 16.5102C232.42 14.8469 233.628 13.5605 235.162 12.6508C236.721 11.7412 238.449 11.2864 240.346 11.2864C242.218 11.2864 243.842 11.6893 245.219 12.4949C246.597 13.3006 247.623 14.3141 248.299 15.5356V11.6373H251.885V33H248.299V29.0237C247.597 30.2712 246.545 31.3107 245.141 32.1424C243.764 32.948 242.153 33.3508 240.307 33.3508C238.41 33.3508 236.695 32.8831 235.162 31.9475C233.628 31.0119 232.42 29.6994 231.536 28.0102C230.653 26.3209 230.211 24.3977 230.211 22.2407ZM248.299 22.2797C248.299 20.6684 247.974 19.265 247.324 18.0695C246.675 16.874 245.791 15.9644 244.673 15.3407C243.582 14.691 242.373 14.3661 241.048 14.3661C239.723 14.3661 238.514 14.678 237.423 15.3017C236.331 15.9254 235.46 16.835 234.811 18.0305C234.161 19.226 233.836 20.6294 233.836 22.2407C233.836 23.878 234.161 25.3073 234.811 26.5288C235.46 27.7243 236.331 28.6469 237.423 29.2966C238.514 29.9203 239.723 30.2322 241.048 30.2322C242.373 30.2322 243.582 29.9203 244.673 29.2966C245.791 28.6469 246.675 27.7243 247.324 26.5288C247.974 25.3073 248.299 23.891 248.299 22.2797ZM259.011 33.2339C258.335 33.2339 257.763 33 257.295 32.5322C256.828 32.0644 256.594 31.4927 256.594 30.8169C256.594 30.1412 256.828 29.5695 257.295 29.1017C257.763 28.6339 258.335 28.4 259.011 28.4C259.66 28.4 260.206 28.6339 260.648 29.1017C261.116 29.5695 261.35 30.1412 261.35 30.8169C261.35 31.4927 261.116 32.0644 260.648 32.5322C260.206 33 259.66 33.2339 259.011 33.2339Z" fill="black"/>
<path d="M264.74 22.2407C264.74 20.0576 265.182 18.1475 266.065 16.5102C266.949 14.8469 268.157 13.5605 269.691 12.6508C271.25 11.7412 272.978 11.2864 274.875 11.2864C276.746 11.2864 278.371 11.6893 279.748 12.4949C281.126 13.3006 282.152 14.3141 282.828 15.5356V11.6373H286.414V33H282.828V29.0237C282.126 30.2712 281.074 31.3107 279.67 32.1424C278.293 32.948 276.682 33.3508 274.836 33.3508C272.939 33.3508 271.224 32.8831 269.691 31.9475C268.157 31.0119 266.949 29.6994 266.065 28.0102C265.182 26.3209 264.74 24.3977 264.74 22.2407ZM282.828 22.2797C282.828 20.6684 282.503 19.265 281.853 18.0695C281.204 16.874 280.32 15.9644 279.202 15.3407C278.111 14.691 276.902 14.3661 275.577 14.3661C274.252 14.3661 273.043 14.678 271.952 15.3017C270.86 15.9254 269.989 16.835 269.34 18.0305C268.69 19.226 268.365 20.6294 268.365 22.2407C268.365 23.878 268.69 25.3073 269.34 26.5288C269.989 27.7243 270.86 28.6469 271.952 29.2966C273.043 29.9203 274.252 30.2322 275.577 30.2322C276.902 30.2322 278.111 29.9203 279.202 29.2966C280.32 28.6469 281.204 27.7243 281.853 26.5288C282.503 25.3073 282.828 23.891 282.828 22.2797ZM294.241 8.1678C293.566 8.1678 292.994 7.9339 292.526 7.4661C292.058 6.9983 291.824 6.42655 291.824 5.75084C291.824 5.07514 292.058 4.50339 292.526 4.03559C292.994 3.56779 293.566 3.3339 294.241 3.3339C294.891 3.3339 295.437 3.56779 295.879 4.03559C296.346 4.50339 296.58 5.07514 296.58 5.75084C296.58 6.42655 296.346 6.9983 295.879 7.4661C295.437 7.9339 294.891 8.1678 294.241 8.1678ZM295.957 11.6373V33H292.409V11.6373H295.957Z" fill="#7E22CE"/>
<path d="M99.9247 57.4789C100.455 57.5627 100.937 57.7792 101.37 58.1284C101.817 58.4776 102.166 58.9105 102.418 59.4273C102.683 59.9441 102.816 60.4957 102.816 61.0823C102.816 61.8226 102.627 62.493 102.25 63.0935C101.873 63.6801 101.321 64.148 100.595 64.4972C99.8828 64.8324 99.0378 65 98.0602 65H92.6132V50.3978H97.8507C98.8423 50.3978 99.6873 50.5654 100.386 50.9006C101.084 51.2219 101.608 51.6618 101.957 52.2205C102.306 52.7792 102.481 53.4077 102.481 54.106C102.481 54.9719 102.243 55.6912 101.768 56.2638C101.307 56.8225 100.693 57.2275 99.9247 57.4789ZM94.5196 56.7038H97.725C98.6188 56.7038 99.3102 56.4943 99.799 56.0753C100.288 55.6563 100.532 55.0767 100.532 54.3364C100.532 53.5962 100.288 53.0166 99.799 52.5976C99.3102 52.1786 98.6049 51.9691 97.6831 51.9691H94.5196V56.7038ZM97.8926 63.4287C98.8423 63.4287 99.5825 63.2053 100.113 62.7583C100.644 62.3114 100.909 61.6899 100.909 60.8938C100.909 60.0837 100.63 59.4482 100.071 58.9873C99.5127 58.5125 98.7655 58.275 97.8297 58.275H94.5196V63.4287H97.8926ZM115.35 53.5194L108.436 70.4051H106.467L108.73 64.8743L104.1 53.5194H106.216L109.819 62.8212L113.38 53.5194H115.35ZM122.139 59.2178C122.139 58.0446 122.377 57.018 122.852 56.1381C123.326 55.2443 123.976 54.5529 124.8 54.0641C125.638 53.5753 126.567 53.3308 127.586 53.3308C128.592 53.3308 129.465 53.5473 130.205 53.9803C130.945 54.4133 131.497 54.958 131.86 55.6144V53.5194H133.787V65H131.86V62.8631C131.483 63.5335 130.917 64.0922 130.163 64.5391C129.423 64.9721 128.557 65.1886 127.565 65.1886C126.546 65.1886 125.624 64.9372 124.8 64.4343C123.976 63.9315 123.326 63.2262 122.852 62.3184C122.377 61.4106 122.139 60.377 122.139 59.2178ZM131.86 59.2387C131.86 58.3728 131.685 57.6186 131.336 56.9761C130.987 56.3337 130.512 55.8448 129.912 55.5096C129.325 55.1605 128.676 54.9859 127.963 54.9859C127.251 54.9859 126.602 55.1535 126.015 55.4887C125.428 55.8239 124.96 56.3127 124.611 56.9552C124.262 57.5977 124.088 58.3519 124.088 59.2178C124.088 60.0977 124.262 60.8659 124.611 61.5223C124.96 62.1648 125.428 62.6606 126.015 63.0097C126.602 63.3449 127.251 63.5125 127.963 63.5125C128.676 63.5125 129.325 63.3449 129.912 63.0097C130.512 62.6606 130.987 62.1648 131.336 61.5223C131.685 60.8659 131.86 60.1047 131.86 59.2387ZM141.744 53.3308C142.735 53.3308 143.601 53.5473 144.342 53.9803C145.096 54.4133 145.655 54.958 146.018 55.6144V53.5194H147.945V65.2514C147.945 66.2989 147.722 67.2277 147.275 68.0378C146.828 68.8618 146.185 69.5043 145.347 69.9652C144.523 70.4261 143.56 70.6565 142.456 70.6565C140.948 70.6565 139.691 70.3004 138.685 69.5881C137.68 68.8758 137.086 67.9051 136.904 66.676H138.79C138.999 67.3743 139.432 67.933 140.089 68.352C140.745 68.785 141.534 69.0015 142.456 69.0015C143.504 69.0015 144.356 68.6732 145.012 68.0168C145.682 67.3604 146.018 66.4386 146.018 65.2514V62.8421C145.641 63.5125 145.082 64.0712 144.342 64.5181C143.601 64.9651 142.735 65.1886 141.744 65.1886C140.724 65.1886 139.795 64.9372 138.957 64.4343C138.133 63.9315 137.484 63.2262 137.009 62.3184C136.534 61.4106 136.297 60.377 136.297 59.2178C136.297 58.0446 136.534 57.018 137.009 56.1381C137.484 55.2443 138.133 54.5529 138.957 54.0641C139.795 53.5753 140.724 53.3308 141.744 53.3308ZM146.018 59.2387C146.018 58.3728 145.843 57.6186 145.494 56.9761C145.145 56.3337 144.67 55.8448 144.069 55.5096C143.483 55.1605 142.833 54.9859 142.121 54.9859C141.409 54.9859 140.759 55.1535 140.173 55.4887C139.586 55.8239 139.118 56.3127 138.769 56.9552C138.42 57.5977 138.245 58.3519 138.245 59.2178C138.245 60.0977 138.42 60.8659 138.769 61.5223C139.118 62.1648 139.586 62.6606 140.173 63.0097C140.759 63.3449 141.409 63.5125 142.121 63.5125C142.833 63.5125 143.483 63.3449 144.069 63.0097C144.67 62.6606 145.145 62.1648 145.494 61.5223C145.843 60.8659 146.018 60.1047 146.018 59.2387ZM153.073 49.497V65H151.167V49.497H153.073ZM157.307 51.6548C156.944 51.6548 156.637 51.5291 156.385 51.2777C156.134 51.0263 156.008 50.7191 156.008 50.3559C156.008 49.9928 156.134 49.6855 156.385 49.4341C156.637 49.1827 156.944 49.057 157.307 49.057C157.656 49.057 157.95 49.1827 158.187 49.4341C158.438 49.6855 158.564 49.9928 158.564 50.3559C158.564 50.7191 158.438 51.0263 158.187 51.2777C157.95 51.5291 157.656 51.6548 157.307 51.6548ZM158.229 53.5194V65H156.322V53.5194H158.229ZM167.072 53.3099C168.468 53.3099 169.6 53.7359 170.466 54.5878C171.332 55.4258 171.765 56.6409 171.765 58.2331V65H169.879V58.5055C169.879 57.3602 169.593 56.4873 169.02 55.8867C168.447 55.2722 167.665 54.9649 166.674 54.9649C165.668 54.9649 164.865 55.2792 164.264 55.9077C163.678 56.5362 163.385 57.451 163.385 58.6521V65H161.478V53.5194H163.385V55.1535C163.762 54.5669 164.271 54.113 164.914 53.7917C165.57 53.4705 166.29 53.3099 167.072 53.3099ZM177.204 55.0906V61.8575C177.204 62.4162 177.323 62.8142 177.56 63.0516C177.798 63.2751 178.21 63.3868 178.796 63.3868H180.2V65H178.482C177.421 65 176.625 64.7556 176.094 64.2667C175.563 63.7779 175.298 62.9748 175.298 61.8575V55.0906H173.81V53.5194H175.298V50.6283H177.204V53.5194H180.2V55.0906H177.204Z" fill="#475569"/>
<rect x="246.254" y="44.8666" width="51.511" height="24.4841" rx="3.48411" fill="#16A34A"/>
<path d="M261.945 56.6055C262.298 56.6612 262.618 56.8052 262.906 57.0375C263.204 57.2698 263.436 57.5578 263.603 57.9015C263.78 58.2453 263.868 58.6123 263.868 59.0025C263.868 59.4949 263.743 59.9409 263.492 60.3404C263.241 60.7306 262.874 61.0419 262.391 61.2742C261.917 61.4972 261.355 61.6086 260.704 61.6086H257.081V51.8949H260.565C261.225 51.8949 261.787 52.0064 262.251 52.2294C262.716 52.4431 263.064 52.7358 263.297 53.1074C263.529 53.479 263.645 53.8971 263.645 54.3617C263.645 54.9377 263.487 55.4162 263.171 55.7971C262.865 56.1688 262.456 56.4382 261.945 56.6055ZM258.349 56.0898H260.481C261.076 56.0898 261.536 55.9504 261.861 55.6717C262.186 55.393 262.349 55.0074 262.349 54.515C262.349 54.0226 262.186 53.637 261.861 53.3583C261.536 53.0795 261.067 52.9402 260.454 52.9402H258.349V56.0898ZM260.593 60.5634C261.225 60.5634 261.717 60.4148 262.07 60.1174C262.423 59.8201 262.6 59.4067 262.6 58.8771C262.6 58.3382 262.414 57.9155 262.042 57.6089C261.671 57.293 261.174 57.135 260.551 57.135H258.349V60.5634H260.593ZM272.596 57.4974C272.596 57.739 272.582 57.9945 272.554 58.2639H266.45C266.497 59.0165 266.752 59.6064 267.217 60.0338C267.69 60.4519 268.262 60.661 268.931 60.661C269.479 60.661 269.934 60.5355 270.297 60.2847C270.668 60.0245 270.928 59.6808 271.077 59.2534H272.443C272.238 59.9874 271.83 60.5866 271.216 61.0512C270.603 61.5064 269.841 61.7341 268.931 61.7341C268.206 61.7341 267.556 61.5715 266.98 61.2463C266.413 60.9211 265.967 60.4612 265.642 59.8666C265.317 59.2627 265.154 58.5659 265.154 57.7761C265.154 56.9864 265.312 56.2942 265.628 55.6996C265.944 55.105 266.385 54.6497 266.952 54.3338C267.528 54.0086 268.188 53.846 268.931 53.846C269.656 53.846 270.297 54.004 270.854 54.3199C271.412 54.6358 271.839 55.0724 272.136 55.6299C272.443 56.1781 272.596 56.8006 272.596 57.4974ZM271.286 57.2326C271.286 56.7495 271.179 56.336 270.966 55.9923C270.752 55.6392 270.459 55.3744 270.088 55.1979C269.725 55.0121 269.321 54.9191 268.875 54.9191C268.234 54.9191 267.686 55.1235 267.231 55.5324C266.785 55.9412 266.529 56.5079 266.464 57.2326H271.286ZM275.817 55.0167V59.5182C275.817 59.8898 275.896 60.1546 276.054 60.3126C276.212 60.4612 276.486 60.5355 276.876 60.5355H277.81V61.6086H276.667C275.961 61.6086 275.431 61.4461 275.078 61.1209C274.725 60.7957 274.549 60.2615 274.549 59.5182V55.0167H273.559V53.9715H274.549V52.0482H275.817V53.9715H277.81V55.0167H275.817ZM278.873 57.7622C278.873 56.9817 279.031 56.2989 279.347 55.7135C279.662 55.1189 280.094 54.659 280.643 54.3338C281.2 54.0086 281.818 53.846 282.496 53.846C283.165 53.846 283.746 53.9901 284.238 54.2781C284.731 54.5661 285.098 54.9284 285.339 55.3651V53.9715H286.621V61.6086H285.339V60.1871C285.088 60.6331 284.712 61.0047 284.21 61.302C283.718 61.5901 283.142 61.7341 282.482 61.7341C281.804 61.7341 281.191 61.5668 280.643 61.2324C280.094 60.8979 279.662 60.4287 279.347 59.8248C279.031 59.2209 278.873 58.5333 278.873 57.7622ZM285.339 57.7761C285.339 57.2001 285.223 56.6984 284.991 56.271C284.759 55.8436 284.443 55.5184 284.043 55.2954C283.653 55.0632 283.221 54.947 282.747 54.947C282.273 54.947 281.841 55.0585 281.451 55.2815C281.061 55.5045 280.75 55.8297 280.517 56.257C280.285 56.6844 280.169 57.1861 280.169 57.7622C280.169 58.3475 280.285 58.8585 280.517 59.2952C280.75 59.7226 281.061 60.0524 281.451 60.2847C281.841 60.5077 282.273 60.6192 282.747 60.6192C283.221 60.6192 283.653 60.5077 284.043 60.2847C284.443 60.0524 284.759 59.7226 284.991 59.2952C285.223 58.8585 285.339 58.3522 285.339 57.7761Z" fill="white"/>
</svg>
