<svg width="17" height="17" viewBox="0 0 17 17" fill="none" xmlns="http://www.w3.org/2000/svg">
<rect x="0.134766" y="0.13562" width="16" height="16" rx="2.13333" fill="#E9D5FF"/>
<path d="M7.68945 3.69122V4.58011" stroke="#7E22CE" stroke-width="0.666667" stroke-linecap="round" stroke-linejoin="round"/>
<path d="M5.02344 3.69122V4.58011" stroke="#7E22CE" stroke-width="0.666667" stroke-linecap="round" stroke-linejoin="round"/>
<path d="M5.02279 4.13562H4.57834C4.34259 4.13562 4.1165 4.22927 3.9498 4.39597C3.7831 4.56267 3.68945 4.78876 3.68945 5.02451V6.80229C3.68945 7.50953 3.9704 8.18781 4.4705 8.6879C4.9706 9.188 5.64888 9.46895 6.35612 9.46895C7.06336 9.46895 7.74164 9.188 8.24174 8.6879C8.74183 8.18781 9.02279 7.50953 9.02279 6.80229V5.02451C9.02279 4.78876 8.92914 4.56267 8.76244 4.39597C8.59574 4.22927 8.36965 4.13562 8.1339 4.13562H7.68945" stroke="#7E22CE" stroke-width="0.666667" stroke-linecap="round" stroke-linejoin="round"/>
<path d="M6.35547 9.46895C6.35547 10.1762 6.63642 10.8545 7.13652 11.3546C7.63661 11.8547 8.31489 12.1356 9.02214 12.1356C9.72938 12.1356 10.4077 11.8547 10.9078 11.3546C11.4079 10.8545 11.6888 10.1762 11.6888 9.46895V8.13562" stroke="#7E22CE" stroke-width="0.666667" stroke-linecap="round" stroke-linejoin="round"/>
<path d="M11.6897 8.13569C12.1806 8.13569 12.5786 7.73772 12.5786 7.2468C12.5786 6.75588 12.1806 6.35791 11.6897 6.35791C11.1988 6.35791 10.8008 6.75588 10.8008 7.2468C10.8008 7.73772 11.1988 8.13569 11.6897 8.13569Z" stroke="#7E22CE" stroke-width="0.666667" stroke-linecap="round" stroke-linejoin="round"/>
<g clip-path="url(#clip0_395_5116)">
<path d="M7.29366 6.66149C6.9744 6.58059 6.8144 6.54088 6.70404 6.42926C6.59366 6.31691 6.5544 6.15586 6.4744 5.83302L6.35663 5.35736L6.23885 5.83302C6.15885 6.15586 6.11959 6.31766 6.00921 6.42926C5.8981 6.54088 5.73885 6.58059 5.41959 6.66149L4.94922 6.78058L5.41959 6.89968C5.73885 6.98058 5.89885 7.02028 6.00921 7.1319C6.11959 7.24426 6.15885 7.4053 6.23885 7.72814L6.35663 8.2038L6.4744 7.72814C6.5544 7.4053 6.59366 7.2435 6.70404 7.1319C6.81515 7.02028 6.9744 6.98058 7.29366 6.89968L7.76403 6.78058L7.29366 6.66149Z" fill="#7E22CE"/>
<path d="M7.49828 5.42262C7.39185 5.39566 7.33852 5.38242 7.30173 5.34522C7.26495 5.30777 7.25186 5.25408 7.22519 5.14647L7.18593 4.98792L7.14668 5.14647C7.12001 5.25408 7.10692 5.30802 7.07014 5.34522C7.0331 5.38242 6.98 5.39566 6.87359 5.42262L6.7168 5.46232L6.87359 5.50202C6.98 5.52899 7.03334 5.54222 7.07014 5.57943C7.10692 5.61688 7.12001 5.67056 7.14668 5.77818L7.18593 5.93673L7.22519 5.77818C7.25186 5.67056 7.26495 5.61663 7.30173 5.57943C7.33877 5.54222 7.39185 5.52899 7.49828 5.50202L7.65507 5.46232L7.49828 5.42262Z" fill="#7E22CE"/>
</g>
<defs>
<clipPath id="clip0_395_5116">
<rect width="3.55556" height="3.71536" fill="white" transform="translate(4.57812 4.86304)"/>
</clipPath>
</defs>
</svg>
